<svg width="201" height="27" viewBox="0 0 201 27" fill="none" xmlns="http://www.w3.org/2000/svg">
<path d="M13 3.76C17.36 3.76 21.32 6.76 21.32 12.72V26H16.32V13.6C16.32 10.12 13.88 8.24 11.24 8.24C8.32 8.24 5.44 10.68 5.44 14.92V26H0.4V4.36H5.44V8.84C7.08 5.68 9.92 3.76 13 3.76ZM41.5088 4.4H46.5088V26H41.5088V21.56C39.8288 24.72 36.9888 26.6 33.9088 26.6C29.5488 26.6 25.5888 23.6 25.5888 17.68V4.4H30.6288V16.8C30.6288 20.28 33.0288 22.12 35.6688 22.12C38.6288 22.12 41.5088 19.72 41.5088 15.48V4.4ZM55.2975 10.36C55.2975 14.76 67.7775 11.12 67.7775 19.72C67.7775 24.48 64.3775 26.6 59.0975 26.6C54.5775 26.6 50.5775 23.76 50.5775 19.12H55.2575C55.2575 21.4 57.5375 22.36 59.6175 22.36C61.4175 22.36 63.0575 21.64 63.0575 20.44C63.0575 16.32 50.7775 19.36 50.7775 10.72C50.7775 6 54.5775 3.76 58.9775 3.76C64.5775 3.76 67.3375 6.48 67.3375 11.08H62.8575C62.8575 9.12 60.7375 8.2 58.7375 8.2C56.9775 8.2 55.2975 8.92 55.2975 10.36ZM82.0063 3.76C88.7663 3.76 93.4063 8.48 93.4063 15.16V26H88.3663V22.32C87.2463 24.56 84.6463 26.6 81.4463 26.6C75.2063 26.6 70.8463 22.04 70.8463 15.16C70.8463 8.76 75.1663 3.76 82.0063 3.76ZM82.0063 21.6C85.8063 21.6 88.3663 18.52 88.3663 15.16C88.3663 11.36 85.8063 8.76 82.0063 8.76C77.9263 8.76 76.0863 11.96 76.0863 15.16C76.0863 18.4 77.9263 21.6 82.0063 21.6ZM113.835 4.4H119.035L113.115 26H105.915C102.235 26 100.075 23.76 99.475 21L95.715 4.4H100.875L104.075 18.48C104.435 20.04 105.675 21.24 107.275 21.24H109.195L113.835 4.4ZM132.084 3.76C138.844 3.76 143.484 8.48 143.484 15.16V26H138.444V22.32C137.324 24.56 134.724 26.6 131.524 26.6C125.284 26.6 120.924 22.04 120.924 15.16C120.924 8.76 125.244 3.76 132.084 3.76ZM132.084 21.6C135.884 21.6 138.444 18.52 138.444 15.16C138.444 11.36 135.884 8.76 132.084 8.76C128.004 8.76 126.164 11.96 126.164 15.16C126.164 18.4 128.004 21.6 132.084 21.6ZM154.302 4.4H162.302V9.16H156.182C153.462 9.16 152.622 10.28 152.622 12.72V26H147.582V11.12C147.582 7.12 150.302 4.4 154.302 4.4ZM172.561 21.44H175.281V26H170.881C168.161 26 165.201 24.72 165.201 20.76V0.28H170.241V4.4H174.641V8.76H170.241V19.12C170.241 20.64 171.201 21.44 172.561 21.44ZM188.686 3.76C195.446 3.76 200.086 8.48 200.086 15.16V26H195.046V22.32C193.926 24.56 191.326 26.6 188.126 26.6C181.886 26.6 177.526 22.04 177.526 15.16C177.526 8.76 181.846 3.76 188.686 3.76ZM188.686 21.6C192.486 21.6 195.046 18.52 195.046 15.16C195.046 11.36 192.486 8.76 188.686 8.76C184.606 8.76 182.766 11.96 182.766 15.16C182.766 18.4 184.606 21.6 188.686 21.6Z" fill="url(#paint0_linear_50_225)"/>
<defs>
<linearGradient id="paint0_linear_50_225" x1="-2" y1="12" x2="203" y2="12" gradientUnits="userSpaceOnUse">
<stop stop-color="#A4442E"/>
<stop offset="0.5" stop-color="#4F7444"/>
<stop offset="1" stop-color="#2F5D8C"/>
</linearGradient>
</defs>
</svg>
